<svg width="915" height="128" viewBox="0 0 915 128" fill="none" xmlns="http://www.w3.org/2000/svg">
<path d="M23.6875 111H6.5V17.4375H23.6875V111Z" fill="#54669c"/>
<path d="M56.875 25.875C56.875 27.4583 56.5625 28.9375 55.9375 30.3125C55.3542 31.6875 54.5417 32.8958 53.5 33.9375C52.4583 34.9375 51.2292 35.75 49.8125 36.375C48.4375 36.9583 46.9583 37.25 45.375 37.25C43.7917 37.25 42.2917 36.9583 40.875 36.375C39.5 35.75 38.2917 34.9375 37.25 33.9375C36.25 32.8958 35.4375 31.6875 34.8125 30.3125C34.2292 28.9375 33.9375 27.4583 33.9375 25.875C33.9375 24.3333 34.2292 22.875 34.8125 21.5C35.4375 20.0833 36.25 18.875 37.25 17.875C38.2917 16.8333 39.5 16.0208 40.875 15.4375C42.2917 14.8125 43.7917 14.5 45.375 14.5C46.9583 14.5 48.4375 14.8125 49.8125 15.4375C51.2292 16.0208 52.4583 16.8333 53.5 17.875C54.5417 18.875 55.3542 20.0833 55.9375 21.5C56.5625 22.875 56.875 24.3333 56.875 25.875ZM53.9375 111H36.75V44.0625H53.9375V111Z" fill="#a54a5e"/>
<path d="M84.0625 111H67V17.4375H84.0625V47C86.1042 45.4583 88.2083 44.375 90.375 43.75C92.5417 43.0833 94.75 42.75 97 42.75C101.125 42.75 105 43.5417 108.625 45.125C112.25 46.6667 115.396 48.8125 118.062 51.5625C120.771 54.2708 122.896 57.4583 124.438 61.125C126.021 64.75 126.812 68.625 126.812 72.75V111H109.625V72.75H109.75C109.75 71 109.417 69.3542 108.75 67.8125C108.083 66.2292 107.167 64.8542 106 63.6875C104.833 62.5208 103.479 61.6042 101.938 60.9375C100.396 60.2708 98.75 59.9375 97 59.9375C95.2083 59.9375 93.5208 60.2708 91.9375 60.9375C90.3542 61.6042 88.9792 62.5208 87.8125 63.6875C86.6458 64.8542 85.7292 66.2292 85.0625 67.8125C84.3958 69.3542 84.0625 71 84.0625 72.75V111Z" fill="#e84311"/>
<path d="M206 76.9375C206 82.1875 205.104 86.9792 203.312 91.3125C201.521 95.6458 199.083 99.375 196 102.5C192.917 105.583 189.292 107.979 185.125 109.688C181 111.396 176.562 112.25 171.812 112.25C167.104 112.25 162.667 111.375 158.5 109.625C154.375 107.875 150.75 105.438 147.625 102.312C144.542 99.1875 142.104 95.4792 140.312 91.1875C138.521 86.8542 137.625 82.1042 137.625 76.9375V17.4375H154.75V48.6875C155.667 47.5208 156.771 46.4792 158.062 45.5625C159.396 44.6458 160.812 43.8958 162.312 43.3125C163.854 42.7292 165.438 42.2917 167.062 42C168.688 41.6667 170.271 41.5 171.812 41.5C176.562 41.5 181 42.3958 185.125 44.1875C189.292 45.9375 192.917 48.3958 196 51.5625C199.083 54.7292 201.521 58.4792 203.312 62.8125C205.104 67.1042 206 71.8125 206 76.9375ZM188.812 76.9375C188.812 74.3542 188.354 71.9583 187.438 69.75C186.562 67.5 185.354 65.5625 183.812 63.9375C182.271 62.3125 180.458 61.0417 178.375 60.125C176.333 59.2083 174.146 58.75 171.812 58.75C169.479 58.75 167.271 59.2708 165.188 60.3125C163.146 61.3125 161.354 62.6667 159.812 64.375C158.271 66.0417 157.062 67.9792 156.188 70.1875C155.312 72.3542 154.875 74.6042 154.875 76.9375C154.875 79.5208 155.312 81.9167 156.188 84.125C157.062 86.3333 158.271 88.25 159.812 89.875C161.354 91.5 163.146 92.7917 165.188 93.75C167.271 94.6667 169.479 95.125 171.812 95.125C174.146 95.125 176.333 94.6667 178.375 93.75C180.458 92.7917 182.271 91.5 183.812 89.875C185.354 88.25 186.562 86.3333 187.438 84.125C188.354 81.9167 188.812 79.5208 188.812 76.9375Z" fill="#f27502"/>
<path d="M232.562 111H215.5V44.0625H219.625L225.25 52C228 49.5 231.125 47.5833 234.625 46.25C238.125 44.875 241.75 44.1875 245.5 44.1875H260.562V61.1875H245.5C243.708 61.1875 242.021 61.5208 240.438 62.1875C238.854 62.8542 237.479 63.7708 236.312 64.9375C235.146 66.1042 234.229 67.4792 233.562 69.0625C232.896 70.6458 232.562 72.3333 232.562 74.125V111Z" fill="#759f53"/>
<path d="M284 111H265.562L302.688 21.375H321.125L284 111ZM379.188 103.188C377.812 104.438 376.333 105.625 374.75 106.75C373.208 107.833 371.583 108.792 369.875 109.625C368.167 110.417 366.396 111.042 364.562 111.5C362.771 112 360.938 112.25 359.062 112.25C354.938 112.25 351.062 111.521 347.438 110.062C343.812 108.604 340.625 106.542 337.875 103.875C335.167 101.167 333.021 97.8958 331.438 94.0625C329.896 90.1875 329.125 85.8542 329.125 81.0625V44.0625H346.125V81.0625C346.125 83.3125 346.458 85.3333 347.125 87.125C347.833 88.875 348.771 90.3542 349.938 91.5625C351.104 92.7708 352.458 93.6875 354 94.3125C355.583 94.9375 357.271 95.25 359.062 95.25C360.812 95.25 362.458 94.8542 364 94.0625C365.583 93.2292 366.958 92.1458 368.125 90.8125C369.292 89.4792 370.208 87.9792 370.875 86.3125C371.542 84.6042 371.875 82.8542 371.875 81.0625V44.0625H388.938V111H384.812L379.188 103.188ZM435.562 111C431.438 111 427.562 110.229 423.938 108.688C420.312 107.104 417.125 104.958 414.375 102.25C411.667 99.5 409.521 96.3125 407.938 92.6875C406.396 89.0625 405.625 85.1875 405.625 81.0625V61.1875H397.312V44.1875H405.625V17.4375H422.625V44.1875H448.5V61.1875H422.625V81.0625C422.625 82.8542 422.958 84.5417 423.625 86.125C424.292 87.6667 425.208 89.0208 426.375 90.1875C427.542 91.3542 428.917 92.2917 430.5 93C432.083 93.6667 433.771 94 435.562 94H448.5V111H435.562ZM478.25 25.875C478.25 27.4583 477.938 28.9375 477.312 30.3125C476.729 31.6875 475.917 32.8958 474.875 33.9375C473.833 34.9375 472.604 35.75 471.188 36.375C469.812 36.9583 468.333 37.25 466.75 37.25C465.167 37.25 463.667 36.9583 462.25 36.375C460.875 35.75 459.667 34.9375 458.625 33.9375C457.625 32.8958 456.812 31.6875 456.188 30.3125C455.604 28.9375 455.312 27.4583 455.312 25.875C455.312 24.3333 455.604 22.875 456.188 21.5C456.812 20.0833 457.625 18.875 458.625 17.875C459.667 16.8333 460.875 16.0208 462.25 15.4375C463.667 14.8125 465.167 14.5 466.75 14.5C468.333 14.5 469.812 14.8125 471.188 15.4375C472.604 16.0208 473.833 16.8333 474.875 17.875C475.917 18.875 476.729 20.0833 477.312 21.5C477.938 22.875 478.25 24.3333 478.25 25.875ZM475.312 111H458.125V44.0625H475.312V111ZM505.562 111H488.375V17.4375H505.562V111ZM555.375 111H516.375V94H555.375C556.542 94 557.542 93.5833 558.375 92.75C559.208 91.9167 559.625 90.9167 559.625 89.75C559.625 88.5417 559.208 87.75 558.375 87.375C557.542 87 556.542 86.8125 555.375 86.8125H537.625C534.667 86.8125 531.896 86.25 529.312 85.125C526.729 84 524.479 82.4792 522.562 80.5625C520.646 78.6042 519.125 76.3333 518 73.75C516.917 71.1667 516.375 68.3958 516.375 65.4375C516.375 62.4792 516.917 59.7083 518 57.125C519.125 54.5417 520.646 52.2917 522.562 50.375C524.479 48.4583 526.729 46.9583 529.312 45.875C531.896 44.75 534.667 44.1875 537.625 44.1875H572.188V61.1875H537.625C536.458 61.1875 535.458 61.6042 534.625 62.4375C533.792 63.2708 533.375 64.2708 533.375 65.4375C533.375 66.6458 533.792 67.6875 534.625 68.5625C535.458 69.3958 536.458 69.8125 537.625 69.8125H555.375C558.292 69.8125 561.042 70.3125 563.625 71.3125C566.208 72.2708 568.458 73.625 570.375 75.375C572.292 77.125 573.812 79.2292 574.938 81.6875C576.062 84.1458 576.625 86.8333 576.625 89.75C576.625 92.7083 576.062 95.4792 574.938 98.0625C573.812 100.604 572.292 102.854 570.375 104.812C568.458 106.729 566.208 108.25 563.625 109.375C561.042 110.458 558.292 111 555.375 111ZM639.312 57.25V74.25H586.812V57.25H639.312ZM670.562 111H653.5V44.0625H657.625L663.25 50.5625C666 48.0625 669.104 46.1458 672.562 44.8125C676.062 43.4375 679.708 42.75 683.5 42.75C687.583 42.75 691.438 43.5417 695.062 45.125C698.688 46.6667 701.854 48.8125 704.562 51.5625C707.271 54.2708 709.396 57.4583 710.938 61.125C712.521 64.75 713.312 68.625 713.312 72.75V111H696.25V72.75C696.25 71 695.917 69.3542 695.25 67.8125C694.583 66.2292 693.667 64.8542 692.5 63.6875C691.333 62.5208 689.979 61.6042 688.438 60.9375C686.896 60.2708 685.25 59.9375 683.5 59.9375C681.708 59.9375 680.021 60.2708 678.438 60.9375C676.854 61.6042 675.479 62.5208 674.312 63.6875C673.146 64.8542 672.229 66.2292 671.562 67.8125C670.896 69.3542 670.562 71 670.562 72.75V111ZM774.188 103.188C772.812 104.438 771.333 105.625 769.75 106.75C768.208 107.833 766.583 108.792 764.875 109.625C763.167 110.417 761.396 111.042 759.562 111.5C757.771 112 755.938 112.25 754.062 112.25C749.938 112.25 746.062 111.521 742.438 110.062C738.812 108.604 735.625 106.542 732.875 103.875C730.167 101.167 728.021 97.8958 726.438 94.0625C724.896 90.1875 724.125 85.8542 724.125 81.0625V44.0625H741.125V81.0625C741.125 83.3125 741.458 85.3333 742.125 87.125C742.833 88.875 743.771 90.3542 744.938 91.5625C746.104 92.7708 747.458 93.6875 749 94.3125C750.583 94.9375 752.271 95.25 754.062 95.25C755.812 95.25 757.458 94.8542 759 94.0625C760.583 93.2292 761.958 92.1458 763.125 90.8125C764.292 89.4792 765.208 87.9792 765.875 86.3125C766.542 84.6042 766.875 82.8542 766.875 81.0625V44.0625H783.938V111H779.812L774.188 103.188ZM858.625 111H837.75L824.438 90.5L811 111H790.125L814.562 76.6875L790.125 43.6875H811L824.438 62.875L837.75 43.6875H858.625L834.125 76.6875L858.625 111ZM898.312 111C894.188 111 890.312 110.229 886.688 108.688C883.062 107.104 879.875 104.958 877.125 102.25C874.417 99.5 872.271 96.3125 870.688 92.6875C869.146 89.0625 868.375 85.1875 868.375 81.0625V61.1875H860.062V44.1875H868.375V17.4375H885.375V44.1875H911.25V61.1875H885.375V81.0625C885.375 82.8542 885.708 84.5417 886.375 86.125C887.042 87.6667 887.958 89.0208 889.125 90.1875C890.292 91.3542 891.667 92.2917 893.25 93C894.833 93.6667 896.521 94 898.312 94H911.25V111H898.312Z" fill="#fff7f7"/>
</svg>
